<svg width="41" height="35" viewBox="0 0 41 35" fill="none" xmlns="http://www.w3.org/2000/svg">
<g clip-path="url(#clip0_0_20)">
<path d="M40.3167 22.1613C37.7953 22.1613 35.7433 20.4096 35.7433 18.2571C35.7433 17.9346 35.4378 17.6738 35.06 17.6738C34.6821 17.6738 34.3767 17.9346 34.3767 18.2571C34.3767 21.0535 37.0409 23.3279 40.3167 23.3279C40.6946 23.3279 41 23.0671 41 22.7446C41 22.422 40.6939 22.1613 40.3167 22.1613Z" fill="black"/>
<path d="M39.8069 20.795C40.1848 20.795 40.4902 20.5343 40.4902 20.2117C40.4902 19.8892 40.1848 19.6284 39.8069 19.6284C39.2015 19.6284 38.7102 19.2084 38.7102 18.6922C38.7102 18.3696 38.4048 18.1089 38.0269 18.1089C37.649 18.1089 37.3436 18.3696 37.3436 18.6922C37.3429 19.8518 38.4478 20.795 39.8069 20.795Z" fill="black"/>
<path d="M13.6676 1.74524C16.1897 1.74524 18.241 3.49693 18.241 5.64936C18.241 5.97193 18.5471 6.23268 18.9243 6.23268C19.3015 6.23268 19.6076 5.97193 19.6076 5.64936C19.6076 2.85295 16.9427 0.578613 13.6676 0.578613C13.2904 0.578613 12.9843 0.839355 12.9843 1.16193C12.9843 1.4845 13.2897 1.74524 13.6676 1.74524Z" fill="black"/>
<path d="M13.494 3.69464C13.494 4.01721 13.8001 4.27796 14.1773 4.27796C14.7821 4.27796 15.2734 4.69794 15.2734 5.21417C15.2734 5.53675 15.5795 5.79749 15.9567 5.79749C16.3339 5.79749 16.64 5.53675 16.64 5.21417C16.64 4.05455 15.5351 3.11133 14.1773 3.11133C13.8001 3.11133 13.494 3.37207 13.494 3.69464Z" fill="black"/>
<path d="M30.1176 22.1011C29.2457 21.6765 28.343 21.5423 27.575 21.7243C26.9983 21.8608 26.5282 22.1723 26.2111 22.6261C25.5141 23.3377 24.6491 24.1695 24.44 24.2985C22.8226 25.2341 21.5359 25.1238 20.1392 23.9316L12.2907 17.2322C10.8933 16.0393 10.7649 14.9409 11.8595 13.5626C12.0126 13.3817 12.987 12.6438 13.8206 12.0483C14.3523 11.7776 14.7171 11.3763 14.877 10.884C15.0895 10.2289 14.9331 9.45837 14.4315 8.70765C14.3133 8.53499 11.4994 4.46695 8.90695 3.29624C7.59089 2.70185 5.99946 2.90601 4.94648 3.80489L3.21156 5.28418C0.468746 7.6256 -0.524104 10.2791 0.25897 13.1706C0.912215 15.5808 2.81592 18.1457 5.91815 20.7933L15.9662 29.3715C19.9035 32.7326 23.6589 34.4207 27.1028 34.4207C29.6318 34.4207 31.9933 33.5096 34.1348 31.682L35.8683 30.2022C36.9213 29.3033 37.1612 27.9448 36.4642 26.8213C35.0921 24.6076 30.3274 22.2061 30.1176 22.1011ZM34.9021 29.3774L33.1686 30.8572C28.6799 34.6879 23.2175 33.9109 16.9331 28.5467L6.88435 19.9685C3.96593 17.4772 2.18522 15.1013 1.59074 12.9081C0.910848 10.3993 1.75747 8.17625 4.17776 6.10957L5.91131 4.6297C6.29875 4.29954 6.8085 4.12688 7.32577 4.12688C7.64487 4.12688 7.9674 4.19221 8.266 4.32754C10.5161 5.34426 13.2241 9.25888 13.2473 9.29213C13.5541 9.7512 13.671 10.2301 13.5596 10.5731C13.4913 10.7831 13.3382 10.9429 13.0922 11.0607L12.9897 11.1214C12.4069 11.5367 11.0197 12.5412 10.7293 12.9069C10.3112 13.4342 10.0337 13.9522 9.88818 14.4615C9.40235 13.6343 9.00945 12.6765 8.8803 11.6143C8.84135 11.2946 8.50516 11.0689 8.13002 11.094C7.75489 11.1278 7.48156 11.4142 7.52051 11.735C8.01386 15.7908 11.7085 18.4309 11.8657 18.5412C11.8828 18.5528 11.9026 18.5575 11.9203 18.5674L19.1723 24.7581C19.2031 24.7844 19.2352 24.8077 19.2659 24.8334C19.2899 24.8631 19.3056 24.8964 19.337 24.9232C19.4661 25.0323 22.5513 27.5872 27.2627 28.0048C27.2866 28.0066 27.3106 28.0078 27.3338 28.0078C27.6795 28.0078 27.9761 27.7843 28.013 27.4851C28.0519 27.1643 27.7793 26.8779 27.4035 26.844C25.959 26.7163 24.6791 26.3546 23.6125 25.9352C24.1352 25.8011 24.6668 25.5783 25.206 25.2668C25.6351 25.0183 26.8117 23.8347 27.2976 23.3372L27.3686 23.2491C27.5067 23.0397 27.6939 22.909 27.9399 22.8501C28.3417 22.7573 28.9027 22.8548 29.4336 23.1126C29.4794 23.1359 34.0651 25.4476 35.2561 27.3684C35.6702 28.0352 35.528 28.8431 34.9021 29.3774Z" fill="black"/>
</g>
<defs>
<clipPath id="clip0_0_20">
<rect width="41" height="35" fill="white"/>
</clipPath>
</defs>
</svg>
